<svg xmlns="http://www.w3.org/2000/svg" enable-background="new -1095.842 1254.923 3000 3000" viewBox="-1095.842 1254.923 3000 3000" id="search-product-on-online-stores">
  <path fill="#DCF4E6" d="M1356.625,3597.824H-482.784c19.413-129.265,89.043-237.44,183.487-293.531
		c34.954-20.983,73.434-34.759,113.892-39.805c25.004-103.156,68.345-196.781,125.439-275.43
		c109.915-151.29,270.969-246.677,450.428-246.677c247.075,0,459.145,180.924,551.244,439.455
		c11.635-1.442,23.39-2.537,35.285-2.537c174.023,0,314.952,170.966,314.952,381.709c0,2.136,0,3.925-0.139,5.767
		C1315.107,3572.702,1336.933,3583.407,1356.625,3597.824z"></path>
  <path fill="#93E5B6" d="M854.658 3597.824h672.914c-17.76-32.052-55.501-22.115-96.131-22.97-7.594-23.962-28.637-23.459-73.969-16.08 57.43-52.373 39.512-103.827-60.645-70.29 114.4-155.741-62.942-191.335-89.131-194.45-32.999-3.936-184.692 20.321-104.291 182.501-97.4-40.425-124.047 7.358-50.538 91.431C982.642 3571.259 898.498 3586.684 854.658 3597.824zM-719.256 3597.824H456.071c-76.242-17.71-234.217-38.682-305.284-40.177-13.283-41.913-50.091-41.033-129.383-28.126 100.454-91.609 69.113-181.609-106.076-122.948 200.101-272.413-110.096-334.672-155.904-340.12-57.72-6.885-323.055 35.545-182.42 319.221-170.369-70.709-216.977 12.869-88.399 159.926C-634.23 3551.358-677.815 3565.772-719.256 3597.824z"></path>
  <path fill="#91C4F6" d="M-351.538,2237.361h1517.339c67.297,0,121.815,54.53,121.815,121.673v833.119
			c0,67.297-54.518,121.815-121.815,121.815H-351.538c-67.154,0-121.673-54.518-121.673-121.815v-833.119
			C-473.211,2291.891-418.693,2237.361-351.538,2237.361z"></path>
  <path fill="#CDEEFF" d="M-399.095,3192.185c0,1.896,0.11,3.689,0.324,5.585c2.734,23.934,23.071,42.023,47.285,42.023H1165.72
			c24.213,0,44.551-18.089,47.298-42.077c0.208-1.843,0.312-3.636,0.312-5.531v-833.121c0-4.219-0.591-8.454-1.766-12.623
			c-5.636-20.636-24.473-34.973-45.843-34.973H-351.486c-21.363,0-40.207,14.349-45.823,34.882
			c-1.196,4.26-1.786,8.494-1.786,12.714V3192.185z"></path>
  <path fill="#FFC439" d="M1165.523,1851.409v256.5H-342.405v-256.5c0-19.853,16.179-36.01,36.053-36.01h1435.863
			C1149.43,1815.399,1165.523,1831.556,1165.523,1851.409z"></path>
  <polygon fill="#009444" points="820.421 2197.595 545.299 2197.595 464.192 2030.002 680.495 2030.002"></polygon>
  <polygon fill="#009444" points="-73.084 2030.002 -282.082 2197.595 -557.317 2197.595 -325.976 2030.002"></polygon>
  <polygon fill="#009444" points="358.589 2030.002 269.354 2197.595 -6.363 2197.595 141.52 2030.002"></polygon>
  <polygon fill="#DBA12C" points="142.823 2030.002 -6.363 2197.595 -282.138 2197.595 -73.991 2030.002"></polygon>
  <polygon fill="#DBA12C" points="1096.507 2197.595 820.194 2197.595 679.929 2030.002 895.949 2030.002"></polygon>
  <polygon fill="#009444" points="1371.602 2197.595 1096.111 2197.595 894.816 2030.002 1146.349 2030.002"></polygon>
  <polygon fill="#DBA12C" points="464.645 2030.002 545.582 2197.595 269.354 2197.595 358.589 2030.002"></polygon>
  <path fill="#097C3A" d="M-282.024,2197.595v105.858c0,1.756,0,3.397-0.114,5.155c-2.039,97.192-62.869,175.127-137.689,175.127
			c-74.82,0-135.764-77.935-137.689-175.127c-0.17-1.757-0.17-3.399-0.17-5.155v-105.858H-282.024z"></path>
  <path fill="#FFC439" d="M-6.363,2197.595v105.858c0,1.756,0,3.397-0.114,5.155c-2.01,97.192-62.869,175.127-137.689,175.127
			c-74.792,0-135.706-77.935-137.745-175.127c-0.113-1.757-0.113-3.399-0.113-5.155v-105.858H-6.363z"></path>
  <path fill="#097C3A" d="M269.354,2197.595v105.858c0,1.756,0,3.397-0.17,5.155c-2.038,97.192-62.896,175.127-137.66,175.127
			c-74.849,0-135.764-77.935-137.774-175.127c-0.113-1.757-0.113-3.399-0.113-5.155v-105.858H269.354z"></path>
  <path fill="#FFC439" d="M545.015,2197.595v105.858c0,1.756,0,3.397-0.113,5.155c-2.039,97.192-62.869,175.127-137.745,175.127
			c-74.763,0-135.706-77.935-137.746-175.127c-0.057-1.757-0.057-3.399-0.057-5.155v-105.858H545.015z"></path>
  <path fill="#097C3A" d="M820.62 2197.595v105.858c0 1.756 0 3.397-.057 5.155-2.039 97.192-62.869 175.127-137.688 175.127s-135.763-77.935-137.745-175.127c-.114-1.757-.114-3.399-.114-5.155v-105.858H820.62zM1371.969 2197.595v105.858c0 1.756 0 3.397-.084 5.155-2.039 97.192-62.926 175.127-137.689 175.127-74.82 0-135.707-77.935-137.774-175.127-.113-1.757-.113-3.399-.113-5.155v-105.858H1371.969z"></path>
  <path fill="#FFC439" d="M1096.309,2197.595v105.858c0,1.756,0,3.397-0.085,5.155c-2.039,97.192-62.898,175.127-137.689,175.127
			c-74.82,0-135.736-77.935-137.746-175.127c-0.17-1.757-0.17-3.399-0.17-5.155v-105.858H1096.309z"></path>
  <path fill="#FFF" d="M-557.516 2308.608h-.17v-5.155C-557.686 2305.21-557.686 2306.851-557.516 2308.608zM-282.024 2303.454v5.155h-.114C-282.024 2306.851-282.024 2305.21-282.024 2303.454z"></path>
  <path fill="#DBA12C" d="M-50.818 1967.159c-7.266-3.849-12.969-9.19-17.118-16.006-4.139-6.815-6.214-14.493-6.214-23.031 0-8.539 2.075-16.216 6.214-23.032 4.149-6.816 9.852-12.147 17.118-16.006 7.266-3.859 15.465-5.793 24.575-5.793s17.299 1.935 24.565 5.793c7.266 3.859 12.98 9.19 17.119 16.006 4.149 6.816 6.224 14.493 6.224 23.032 0 8.539-2.075 16.216-6.224 23.031-4.14 6.816-9.853 12.157-17.119 16.006-7.266 3.869-15.454 5.793-24.565 5.793S-43.552 1971.028-50.818 1967.159zM-14.426 1949.68c3.538-2.054 6.324-4.951 8.379-8.689 2.054-3.728 3.077-8.019 3.077-12.869 0-4.841-1.023-9.131-3.077-12.869-2.054-3.739-4.841-6.625-8.379-8.68-3.528-2.054-7.467-3.076-11.817-3.076-4.349 0-8.299 1.022-11.827 3.076-3.528 2.055-6.324 4.941-8.369 8.68-2.054 3.738-3.087 8.028-3.087 12.869 0 4.85 1.032 9.141 3.087 12.869 2.045 3.739 4.841 6.635 8.369 8.689 3.528 2.045 7.477 3.077 11.827 3.077C-21.893 1952.757-17.953 1951.724-14.426 1949.68zM116.499 1885.015v86.214H96.423l-38.055-45.934v45.934H34.474v-86.214h20.075l38.055 45.943v-45.943H116.499zM133.737 1885.015h24.385v66.88h41.132v19.334h-65.517V1885.015zM208.856 1885.015h24.385v86.214h-24.385V1885.015zM332.634 1885.015v86.214H312.56l-38.055-45.934v45.934h-23.894v-86.214h20.075l38.055 45.943v-45.943H332.634zM419.089 1952.386v18.843h-69.215v-86.214h67.612v18.842h-43.467v14.533h38.296v18.231h-38.296v15.766H419.089zM478.442 1970.366c-6.565-1.724-11.897-4.019-16.005-6.896l8.007-17.98c3.859 2.546 8.33 4.6 13.42 6.154 5.091 1.563 10.103 2.345 15.024 2.345 9.361 0 14.041-2.345 14.041-7.026 0-2.455-1.333-4.29-3.999-5.483-2.676-1.182-6.966-2.435-12.869-3.748-6.494-1.404-11.906-2.897-16.256-4.501-4.36-1.604-8.088-4.169-11.215-7.697-3.117-3.528-4.67-8.289-4.67-14.282 0-5.252 1.433-10.003 4.31-14.232 2.866-4.219 7.156-7.567 12.869-10.033 5.703-2.465 12.698-3.698 20.997-3.698 5.663 0 11.245.641 16.748 1.914 5.502 1.273 10.343 3.137 14.532 5.603l-7.517 18.1c-8.208-4.43-16.176-6.645-23.894-6.645-4.841 0-8.368.721-10.583 2.155-2.216 1.433-3.328 3.308-3.328 5.602 0 2.296 1.313 4.019 3.939 5.171 2.626 1.153 6.855 2.335 12.689 3.568 6.565 1.403 12.007 2.897 16.317 4.5 4.309 1.604 8.048 4.15 11.205 7.637 3.158 3.489 4.741 8.229 4.741 14.222 0 5.172-1.433 9.852-4.31 14.042-2.877 4.189-7.186 7.527-12.929 10.033-5.752 2.506-12.729 3.758-20.937 3.758C491.793 1972.952 485.018 1972.09 478.442 1970.366zM565.267 1904.358h-26.479v-19.343h77.223v19.343h-26.359v66.871h-24.385V1904.358zM642.792 1967.159c-7.266-3.849-12.969-9.19-17.118-16.006-4.14-6.815-6.214-14.493-6.214-23.031 0-8.539 2.075-16.216 6.214-23.032 4.149-6.816 9.852-12.147 17.118-16.006 7.266-3.859 15.465-5.793 24.576-5.793s17.299 1.935 24.565 5.793c7.266 3.859 12.979 9.19 17.118 16.006 4.149 6.816 6.224 14.493 6.224 23.032 0 8.539-2.075 16.216-6.224 23.031-4.139 6.816-9.852 12.157-17.118 16.006-7.266 3.869-15.455 5.793-24.565 5.793S650.058 1971.028 642.792 1967.159zM679.184 1949.68c3.538-2.054 6.324-4.951 8.379-8.689 2.054-3.728 3.077-8.019 3.077-12.869 0-4.841-1.023-9.131-3.077-12.869-2.055-3.739-4.841-6.625-8.379-8.68-3.528-2.054-7.467-3.076-11.816-3.076-4.35 0-8.299 1.022-11.827 3.076-3.528 2.055-6.324 4.941-8.369 8.68-2.054 3.738-3.087 8.028-3.087 12.869 0 4.85 1.032 9.141 3.087 12.869 2.045 3.739 4.841 6.635 8.369 8.689 3.528 2.045 7.477 3.077 11.827 3.077C671.717 1952.757 675.656 1951.724 679.184 1949.68zM765.768 1948.316h-13.3v22.912h-24.385v-86.214h39.409c7.798 0 14.573 1.292 20.325 3.879 5.743 2.595 10.184 6.284 13.3 11.084 3.118 4.811 4.681 10.454 4.681 16.938 0 6.244-1.464 11.677-4.37 16.317-2.917 4.641-7.086 8.279-12.508 10.905l18.602 27.091h-26.109L765.768 1948.316zM777.345 1907.555c-2.546-2.215-6.324-3.327-11.325-3.327h-13.551v25.246h13.551c5.002 0 8.78-1.082 11.325-3.257s3.819-5.282 3.819-9.301S779.89 1909.77 777.345 1907.555zM888.434 1952.386v18.843h-69.215v-86.214h67.612v18.842h-43.468v14.533h38.296v18.231h-38.296v15.766H888.434z"></path>
  <g>
    <path fill="#FFF" d="M-2.773,2534.15h-199.883c-21.505,0-38.938,17.434-38.938,38.938v165.771
					c0,21.505,17.433,38.939,38.938,38.939H-2.773c21.505,0,38.939-17.434,38.939-38.939v-165.771
					C36.165,2551.583,18.732,2534.15-2.773,2534.15z"></path>
    <polygon fill="#009444" points="-150.692 2761.37 -28.824 2739.645 -52.072 2563.939 -158.628 2573.218"></polygon>
    <polygon fill="#097C3A" points="-158.628 2573.218 -163.466 2577.362 -167.011 2573.948 -176.605 2750.023 -167.176 2752.179 -150.692 2761.37"></polygon>
    <path fill="#097C3A" d="M-79.352 2591.735c0 2.545 1.473 4.608 3.291 4.608 1.818 0 3.291-2.063 3.291-4.608 0-2.544-1.473-4.607-3.291-4.607C-77.878 2587.127-79.352 2589.19-79.352 2591.735zM-120.641 2593.729c0 2.468 1.429 4.468 3.191 4.468 1.763 0 3.192-2 3.192-4.468s-1.429-4.468-3.192-4.468C-119.212 2589.261-120.641 2591.261-120.641 2593.729z"></path>
    <path fill="#CDEEFF" d="M-74.239,2591.622c1.222,7.182,2.445,14.363,3.667,21.545c1.05,6.169,2.409,12.395,2.635,18.666
							c0.407,11.276-5.057,20.797-15.491,25.415c-5.293,2.344-11.147,3.174-16.903,3.108c-4.311-0.049-9.383-0.423-12.115-4.251
							c-3.097-4.339-0.006-8.705,3.042-12.064c3.566-3.931,11.925-7.212,11.601-13.298c-0.222-4.167-3.454-7.308-6.127-10.152
							c-2.199-2.34-4.282-4.772-6.193-7.353c-3.444-4.649-9-11.651-8.313-17.817c0.178-1.593,2.698-1.611,2.519,0
							c-0.583,5.234,4.342,11.511,7.278,15.598c3.086,4.296,7.048,7.792,10.212,11.991c2.382,3.16,4.034,7.307,2.632,11.241
							c-1.403,3.935-5.407,5.896-8.448,8.37c-2.14,1.74-4.211,3.805-5.709,6.13c-2.503,3.887-0.465,7.267,3.659,8.486
							c5.159,1.526,11.924,0.694,17.02-0.626c11.648-3.017,19.107-12.035,18.839-24.192c-0.142-6.457-1.597-12.889-2.677-19.237
							c-1.186-6.964-2.371-13.927-3.557-20.892C-76.937,2590.707-74.511,2590.025-74.239,2591.622L-74.239,2591.622z"></path>
    <g>
      <path fill="#FFF" d="M84.823 2609.792h203.249c5.882 0 10.653-4.772 10.653-10.66 0-5.888-4.772-10.656-10.653-10.656H84.823c-5.885 0-10.662 4.768-10.662 10.656C74.161 2605.019 78.937 2609.792 84.823 2609.792zM322.41 2609.792h28.981c5.884 0 10.656-4.772 10.656-10.66 0-5.888-4.772-10.656-10.656-10.656H322.41c-5.884 0-10.658 4.768-10.658 10.656C311.752 2605.019 316.526 2609.792 322.41 2609.792zM129.215 2702.153H84.823c-5.885 0-10.662 4.77-10.662 10.655 0 5.89 4.776 10.662 10.662 10.662h44.392c5.884 0 10.656-4.772 10.656-10.662C139.871 2706.923 135.099 2702.153 129.215 2702.153zM239.343 2702.153h-75.785c-5.886 0-10.658 4.77-10.658 10.655 0 5.89 4.772 10.662 10.658 10.662h75.785c5.885 0 10.66-4.772 10.66-10.662C250.003 2706.923 245.228 2702.153 239.343 2702.153zM351.391 2645.315H228.683c-5.884 0-10.656 4.772-10.656 10.655 0 5.888 4.772 10.656 10.656 10.656h122.708c5.884 0 10.656-4.768 10.656-10.656C362.047 2650.086 357.275 2645.315 351.391 2645.315zM84.823 2666.626H194.34c5.888 0 10.662-4.768 10.662-10.656 0-5.883-4.774-10.655-10.662-10.655H84.823c-5.885 0-10.662 4.772-10.662 10.655C74.161 2661.858 78.937 2666.626 84.823 2666.626z"></path>
    </g>
    <g>
      <path fill="#FFF" d="M-2.773,2859.747h-199.883c-21.505,0-38.938,17.434-38.938,38.938v165.771
					c0,21.505,17.433,38.938,38.938,38.938H-2.773c21.505,0,38.939-17.434,38.939-38.938v-165.771
					C36.165,2877.18,18.732,2859.747-2.773,2859.747z"></path>
      <polygon fill="#91C4F6" points="-150.692 3086.968 -28.824 3065.242 -52.072 2889.536 -158.628 2898.814"></polygon>
      <polygon fill="#549BEC" points="-158.628 2898.814 -163.466 2902.959 -167.011 2899.545 -176.605 3075.62 -167.176 3077.776 -150.692 3086.968"></polygon>
      <path fill="#549BEC" d="M-79.352 2917.332c0 2.545 1.473 4.608 3.291 4.608 1.818 0 3.291-2.063 3.291-4.608 0-2.544-1.473-4.607-3.291-4.607C-77.878 2912.724-79.352 2914.787-79.352 2917.332zM-120.641 2919.326c0 2.468 1.429 4.468 3.191 4.468 1.763 0 3.192-2 3.192-4.468s-1.429-4.468-3.192-4.468C-119.212 2914.859-120.641 2916.859-120.641 2919.326z"></path>
      <path fill="#CDEEFF" d="M-74.239,2917.219c1.222,7.182,2.445,14.363,3.667,21.545c1.05,6.169,2.409,12.395,2.635,18.666
							c0.407,11.276-5.057,20.797-15.491,25.415c-5.293,2.343-11.147,3.174-16.903,3.108c-4.311-0.049-9.383-0.423-12.115-4.251
							c-3.097-4.34-0.006-8.705,3.042-12.065c3.566-3.931,11.925-7.211,11.601-13.297c-0.222-4.167-3.454-7.308-6.127-10.152
							c-2.199-2.34-4.282-4.772-6.193-7.353c-3.444-4.649-9-11.651-8.313-17.817c0.178-1.593,2.698-1.611,2.519,0
							c-0.583,5.234,4.342,11.511,7.278,15.599c3.086,4.295,7.048,7.792,10.212,11.991c2.382,3.16,4.034,7.307,2.632,11.241
							c-1.403,3.935-5.407,5.896-8.448,8.37c-2.14,1.74-4.211,3.805-5.709,6.13c-2.503,3.887-0.465,7.267,3.659,8.486
							c5.159,1.526,11.924,0.694,17.02-0.625c11.648-3.017,19.107-12.035,18.839-24.192c-0.142-6.457-1.597-12.889-2.677-19.237
							c-1.186-6.964-2.371-13.927-3.557-20.892C-76.937,2916.304-74.511,2915.623-74.239,2917.219L-74.239,2917.219z"></path>
      <g>
        <path fill="#FFF" d="M84.823 2935.389h203.249c5.882 0 10.653-4.772 10.653-10.661 0-5.887-4.772-10.655-10.653-10.655H84.823c-5.885 0-10.662 4.768-10.662 10.655C74.161 2930.616 78.937 2935.389 84.823 2935.389zM322.41 2935.389h28.981c5.884 0 10.656-4.772 10.656-10.661 0-5.887-4.772-10.655-10.656-10.655H322.41c-5.884 0-10.658 4.768-10.658 10.655C311.752 2930.616 316.526 2935.389 322.41 2935.389zM129.215 3027.75H84.823c-5.885 0-10.662 4.77-10.662 10.655 0 5.89 4.776 10.662 10.662 10.662h44.392c5.884 0 10.656-4.772 10.656-10.662C139.871 3032.52 135.099 3027.75 129.215 3027.75zM239.343 3027.75h-75.785c-5.886 0-10.658 4.77-10.658 10.655 0 5.89 4.772 10.662 10.658 10.662h75.785c5.885 0 10.66-4.772 10.66-10.662C250.003 3032.52 245.228 3027.75 239.343 3027.75zM351.391 2970.912H228.683c-5.884 0-10.656 4.772-10.656 10.655 0 5.888 4.772 10.656 10.656 10.656h122.708c5.884 0 10.656-4.768 10.656-10.656C362.047 2975.683 357.275 2970.912 351.391 2970.912zM84.823 2992.223H194.34c5.888 0 10.662-4.768 10.662-10.656 0-5.884-4.774-10.655-10.662-10.655H84.823c-5.885 0-10.662 4.772-10.662 10.655C74.161 2987.455 78.937 2992.223 84.823 2992.223z"></path>
      </g>
    </g>
    <g>
      <path fill="#FFF" d="M729.986 2610.822v128.008c0 21.553-17.425 38.979-38.913 38.979H491.202c-21.553 0-38.978-17.426-38.978-38.979v-165.741c0-21.487 17.425-38.913 38.978-38.913h169.54c-.917 3.145-3.276 5.831-6.813 6.879-9.564 2.817-9.564 16.377 0 19.194 6.748 2.031 9.368 10.154 5.11 15.723-1.507 1.899-2.096 3.996-2.096 6.092 0 6.289 6.288 11.988 13.363 9.434 6.617-2.358 13.561 2.686 13.364 9.695-.262 9.958 12.643 14.15 18.278 5.961 1.965-2.948 5.109-4.39 8.254-4.39 3.144 0 6.288 1.442 8.254 4.39C721.339 2611.346 726.056 2612.263 729.986 2610.822zM778.654 2609.792h203.249c5.881 0 10.653-4.772 10.653-10.66 0-5.888-4.772-10.656-10.653-10.656H778.654c-5.885 0-10.662 4.768-10.662 10.656C767.992 2605.019 772.768 2609.792 778.654 2609.792zM1016.241 2609.792h28.981c5.884 0 10.656-4.772 10.656-10.66 0-5.888-4.772-10.656-10.656-10.656h-28.981c-5.884 0-10.658 4.768-10.658 10.656C1005.583 2605.019 1010.357 2609.792 1016.241 2609.792zM823.046 2702.153h-44.392c-5.885 0-10.662 4.77-10.662 10.655 0 5.89 4.776 10.662 10.662 10.662h44.392c5.884 0 10.656-4.772 10.656-10.662C833.702 2706.923 828.93 2702.153 823.046 2702.153zM933.174 2702.153h-75.785c-5.886 0-10.658 4.77-10.658 10.655 0 5.89 4.772 10.662 10.658 10.662h75.785c5.885 0 10.66-4.772 10.66-10.662C943.833 2706.923 939.059 2702.153 933.174 2702.153zM1045.222 2645.315H922.514c-5.884 0-10.656 4.772-10.656 10.655 0 5.888 4.772 10.656 10.656 10.656h122.708c5.884 0 10.656-4.768 10.656-10.656C1055.878 2650.086 1051.106 2645.315 1045.222 2645.315zM778.654 2666.626h109.517c5.888 0 10.662-4.768 10.662-10.656 0-5.883-4.774-10.655-10.662-10.655H778.654c-5.885 0-10.662 4.772-10.662 10.655C767.992 2661.858 772.768 2666.626 778.654 2666.626z"></path>
      <g>
        <polygon fill="#FFC439" points="501.733 2612.549 590.317 2593.729 678.9 2606.727 591.876 2636.736"></polygon>
        <polygon fill="#DBA12C" points="594.284 2726.934 680.5 2705.882 678.9 2606.727 591.571 2625.308"></polygon>
        <polygon fill="#CDEEFF" points="541.371 2604.128 569.087 2598.404 647.592 2612.875 648.545 2632.798 637.635 2636.169 635.612 2632.921 634.554 2637.526 626.223 2640.406 625.945 2619.069" opacity=".5"></polygon>
        <polygon fill="#CDEEFF" points="635.69 2716.86 635.64 2701.391 640.989 2700.352 642.166 2702.242 642.782 2699.597 656.771 2695.628 658.412 2711.297" opacity=".5"></polygon>
        <polygon fill="#FFC439" points="501.733 2612.549 504.58 2714.402 594.284 2726.934 591.571 2625.308"></polygon>
        <path fill="#DBA12C" d="M501.733,2612.549l89.838,12.759c0,0-28.029,3.298-46.643,0
					C526.314,2622.011,501.733,2612.549,501.733,2612.549z"></path>
      </g>
      <path fill="#FFF" d="M748.516,2544.122L748.516,2544.122c-4.595-1.354-6.396-6.9-3.475-10.695
				c4.145-5.386-1.282-12.857-7.686-10.579l0,0c-4.513,1.606-9.23-1.822-9.098-6.61l0,0c0.188-6.794-8.594-9.648-12.436-4.041
				c-2.707,3.952-8.539,3.952-11.245,0l0,0c-3.841-5.607-12.624-2.753-12.436,4.041l0,0c0.132,4.788-4.585,8.216-9.098,6.61l0,0
				c-6.403-2.278-11.831,5.192-7.686,10.579l0,0c2.922,3.796,1.12,9.342-3.475,10.695c-6.52,1.921-6.52,11.155,0,13.076
				c4.595,1.354,6.397,6.9,3.475,10.695l0,0c-4.145,5.385,1.283,12.856,7.686,10.579c4.513-1.606,9.23,1.822,9.098,6.61
				c-0.188,6.794,8.594,9.648,12.436,4.041l0,0c2.707-3.952,8.539-3.952,11.245,0c3.841,5.607,12.624,2.753,12.436-4.041
				c-0.132-4.788,4.585-8.216,9.098-6.61c6.404,2.278,11.831-5.193,7.686-10.579c-2.921-3.796-1.12-9.342,3.475-10.695l0,0
				C755.035,2555.277,755.035,2546.042,748.516,2544.122z"></path>
    </g>
    <g>
      <path fill="#FFF" d="M691.057 2859.747H491.175c-21.505 0-38.938 17.434-38.938 38.938v165.771c0 21.505 17.433 38.938 38.938 38.938h199.883c21.505 0 38.938-17.434 38.938-38.938v-165.771C729.995 2877.18 712.562 2859.747 691.057 2859.747zM778.654 2935.389h203.249c5.881 0 10.653-4.772 10.653-10.661 0-5.887-4.772-10.655-10.653-10.655H778.654c-5.885 0-10.662 4.768-10.662 10.655C767.992 2930.616 772.768 2935.389 778.654 2935.389zM1016.241 2935.389h28.981c5.884 0 10.656-4.772 10.656-10.661 0-5.887-4.772-10.655-10.656-10.655h-28.981c-5.884 0-10.658 4.768-10.658 10.655C1005.583 2930.616 1010.357 2935.389 1016.241 2935.389zM823.046 3027.75h-44.392c-5.885 0-10.662 4.77-10.662 10.655 0 5.89 4.776 10.662 10.662 10.662h44.392c5.884 0 10.656-4.772 10.656-10.662C833.702 3032.52 828.93 3027.75 823.046 3027.75zM933.174 3027.75h-75.785c-5.886 0-10.658 4.77-10.658 10.655 0 5.89 4.772 10.662 10.658 10.662h75.785c5.885 0 10.66-4.772 10.66-10.662C943.833 3032.52 939.059 3027.75 933.174 3027.75zM1045.222 2970.912H922.514c-5.884 0-10.656 4.772-10.656 10.655 0 5.888 4.772 10.656 10.656 10.656h122.708c5.884 0 10.656-4.768 10.656-10.656C1055.878 2975.683 1051.106 2970.912 1045.222 2970.912zM778.654 2992.223h109.517c5.888 0 10.662-4.768 10.662-10.656 0-5.884-4.774-10.655-10.662-10.655H778.654c-5.885 0-10.662 4.772-10.662 10.655C767.992 2987.455 772.768 2992.223 778.654 2992.223z"></path>
      <g>
        <rect width="143.222" height="143.222" x="509.85" y="2917.304" fill="#FFC439"></rect>
        <path fill="#CDEEFF" d="M604.921,3060.363v-38.11l-4.216,3.225l-2.48-3.225l-4.216-1.487l-4.402,5.207
					l-2.542-6.944l-6.309,11.996l-4.107-10.012l-2.728,4.217l-3.473-6.201c0,0-1.177,29.426-2.009,41.334
					C580.603,3060.958,592.763,3059.682,604.921,3060.363z" opacity=".5"></path>
        <polygon fill="#DBA12C" points="509.85 2917.304 545.315 2911.388 673.285 2911.388 653.073 2917.304"></polygon>
        <polygon fill="#DBA12C" points="673.292 2911.379 673.292 3050.514 669.351 3052.461 661.753 3056.237 653.063 3060.533 653.063 2917.315"></polygon>
        <path fill="#CDEEFF" d="M566.147,2917.304v42.905l4.216-3.224l2.48,3.224l4.216,1.487l4.403-5.208l2.541,6.944
					l7.44-23.063l2.977,21.08l2.728-4.216l3.473,6.2c0,0,1.736-43.4,2.48-46.128l9.672-5.209l-9.92,1.239l-0.248-1.239h-21.142
					L566.147,2917.304z" opacity=".5"></path>
        <polygon fill="#CDEEFF" points="649.616 2915.417 659.745 2915.282 660.266 2936.578 661.949 2933.85 662.593 2934.719 664.123 2932.892 665.557 2933.974 667.595 2932.048 667.595 2913.051 657.426 2912.068 658.279 2912.688 656.683 2913.059 655.48 2914.455" opacity=".5"></polygon>
        <polygon fill="#CDEEFF" points="669.351 3052.461 661.753 3056.237 662.134 3043.035 663.82 3045.766 664.745 3040.803 666.407 3042.204 666.739 3038.571 668.828 3034.488" opacity=".5"></polygon>
        <path fill="#CDEEFF" d="M538.56,2912.514l11.607,0.129l-2.791,1.013l0.93,0.517c0,0-3.255,0.93-2.975,0.93
					c0.278,0,2.232,0.609,1.953,0.537c-0.28-0.072-4.605,0.124-4.605,0.124v0.548l-17.883-1.5L538.56,2912.514z" opacity=".5"></path>
      </g>
    </g>
  </g>
  <g>
    <path fill="#FFC439" d="M168.421,2704.039l-19.87,8.616l-80.876,98.53c0,0,34.127,164.208,45.863,172.744
		c11.736,8.536,48.489-12.049,48.489-12.049l-12.216-138.385l36.933-91.754L168.421,2704.039z"></path>
    <path fill="#DBA12C" d="M149.826,2833.494l12.181,138.369c0,0-36.75,20.605-48.476,12.059
		c-11.727-8.507-45.835-172.725-45.835-172.725l8.214-10.044l99.928-32.322L149.826,2833.494z" opacity=".35"></path>
    <path fill="#D7A28E" d="M320.072,3635.233c0,0-5.776,20.716-3.429,22.796c2.368,2.122,8.393,5.506,8.393,5.506
					s-35.478,13.896-41.505,5.789c0.801-11.152,1.581-40.492,1.581-40.492L320.072,3635.233z"></path>
    <path fill="#223956" d="M362.464,3675.843c0,0,9.682,1.154,11.396,10.218c0.903,4.771,0,8.385,0,8.385h-91.516
					c0,0-3.382-2.957-3.112-10.406l1.289-23.89c0,0,3.14-1.855,8.644,3.129c5.489,4.964,18.307,7.853,31.951-6.552
					c0,0,2.033-1.572,10.677,5.234C340.471,3668.767,338.379,3675.843,362.464,3675.843z"></path>
    <path fill="#D7A28E" d="M109.713,3610.339c0,0-9.657,17.133-8.209,19.24c1.456,2.148,5.561,6.005,5.561,6.005
					s-30.27,3.514-33.448-4.084c3.516-10.18,8.682-31.219,8.682-31.219L109.713,3610.339z"></path>
    <path fill="#223956" d="M134.258,3652.679c0,0,15.387,4.792,14.964,12.301c-0.223,3.952-5.455,11.553-5.455,11.553
					L63.4,3656.569c0,0,1.711-7.92,3.391-13.762l5.714-18.651c0,0,2.85-0.85,6.226,4.176c3.365,5.009,12.942,9.812,26.567,1.098
					c0,0,1.921-0.844,7.424,6.237C118.249,3642.759,115.2,3647.946,134.258,3652.679z"></path>
    <path fill="#2F627C" d="M265.551,3012.545c0,0,8.326,213.915,0.987,277.213c-7.337,63.296-155.611,326.963-155.611,326.963
				s-25.207,0.337-31.906-9.905c-6.702-10.24,80.895-286.306,80.895-286.306s-79.248-255.263-58.252-327.496
				C122.655,2920.787,265.551,3012.545,265.551,3012.545z"></path>
    <path fill="#11405C" d="M266.533,3289.754c-7.305,63.277-155.589,326.984-155.589,326.984s-1.737,0-4.491-0.121
				c21.553-56.812,106.559-280.706,107.998-286.274c1.675-6.404-11.674-9.28-27.719-22.151
				c-16.045-12.931,26.042-6.346,37.296-10.595c11.196-4.25-9.158-5.688-20.534-12.092c-11.372-6.406,19.217-15.627,19.217-15.627
				c-16.343-29.154-20.621-193.483-20.621-193.483s34.209,74.412,67.496,119.67C269.645,3234.678,268.868,3269.76,266.533,3289.754z
				"></path>
    <path fill="#2F627C" d="M325.036,2994.597c0,0,71.385,208.077,77.157,271.535c5.765,63.459-80.769,377.87-80.769,377.87
				s-34.615,2.885-43.265-5.77c-8.655-8.652,25.958-320.178,25.958-320.178s-129.802-233.646-124.034-308.645
				C185.852,2934.415,325.036,2994.597,325.036,2994.597z"></path>
    <path fill="#11405C" d="M352.229,3274.848c-16.343,6.406-48.311,14.548-34.121,16.165c14.248,1.615,41.964-5.507,30.589,3.71
				c-11.372,9.279-38.432,18.499-28.435,22.81c9.937,4.249,26.999,2.814,17.063,11.374c-8.622,7.363-49.69,199.23-57.233,310.819
				c-0.719-0.478-1.377-0.958-1.916-1.495c-8.68-8.622,25.922-320.161,25.922-320.161s-48.311-86.984-84.65-171.872
				c25.922,40.409,63.936,95.725,84.83,107.996C338.044,3274.131,368.633,3268.443,352.229,3274.848z"></path>
    <path fill="#FFC439" d="M255.236,2702.75l-86.815,1.289c-54.263,117.175-83.597,296.181-78.925,319.549
				c3.773,18.868,150.807,18.433,217.076,5.257c1.792-7.727,5.962-24.653,5.962-24.653s11.522,20.279,13.612,19.521
				c5.372-1.947,17.934-2.132,17.048-4.924c-4.974-15.708-36.601-54.547-48.96-103.338c-3.554-14.03,12.991-50.78,10.142-65.55
				C289.283,2771.653,263.357,2712.23,255.236,2702.75z"></path>
    <path fill="#DBA12C" d="M343.171,3018.819c0.524,1.638-3.538,2.359-8.123,3.078c-13.823-32.492-54.766-81.035-71.275-103.309
				c-19.588-26.466-14.74-94.924-14.74-94.924l32.493-60.662c8.123,23.977,16.443,53.719,22.863,86.866
				c2.817,14.805-13.692,51.556-10.154,65.575C306.616,2964.249,338.192,3003.097,343.171,3018.819z"></path>
    <g>
      <polygon fill="#D7A28E" points="205.3 2650.272 189.06 2695.043 231.531 2701.662 248.525 2670.66"></polygon>
      <path fill="#DBA12C" d="M190.375,2679.908c15.041-3.879,51.418,7.072,51.868,10.549c0.45,3.474-1.893,9.589-5.752,13.582
					c0,0-37.314,15.118-51.216,0.797C186.008,2693.13,190.375,2679.908,190.375,2679.908z"></path>
      <path fill="#D7A28E" d="M286.906,2582.809
				c0,0,3.965,35.87,6.656,40.378c2.692,4.51,6.505,7.542,4.704,10.164c-1.797,2.623-3.712,3.295-3.712,3.295
				s0.552,20.864-8.514,33.071c-6.808,9.164-61.933,9.668-74.302,1.777c-12.374-7.891-14.931-66.904-10.603-77.593
				C205.462,2583.211,270.419,2571.13,286.906,2582.809z"></path>
      <path fill="#C18C7C" d="M250.135,2677.014c0.023-0.21,0.561-0.374,1.497-0.488c0.469-0.058,1.036-0.105,1.692-0.139
					c0.679-0.066,1.418-0.137,2.219-0.216c3.277-0.29,7.763-0.891,12.66-1.98c9.804-2.178,17.467-5.236,17.835-4.476
					c0.407,0.739-6.939,5.181-17.173,7.462c-5.097,1.137-9.88,1.42-13.304,1.157c-0.858-0.075-1.631-0.139-2.306-0.238
					c-0.673-0.13-1.249-0.259-1.716-0.385C250.606,2677.46,250.111,2677.224,250.135,2677.014z"></path>
      <path fill="#11405C" d="M290.084 2610.26c-2.162.523-3.865.785-4.979.785-7.271 0-11.792-.065-14.608 2.293-1.769 9.564-4.455 18.932-8.058 28.038.197-.393.393-.786.524-1.245-10.351 29.545-28.562 56.536-52.932 76.713-24.304 20.307-54.701 32.558-85.818 37.537-31.052 4.913-63.479 3.406-93.614-6.093-29.937-9.564-58.042-25.942-79.463-48.87 11.136 11.006 23.976 20.112 37.537 27.776 13.495 7.731 27.907 13.823 42.844 18.146 14.871 4.324 30.266 7.141 45.727 7.861 15.526.918 31.051-.261 46.381-2.554 15.329-2.293 30.397-6.486 44.678-12.447 14.281-5.962 27.711-14.019 39.896-23.583 15.722-12.512 29.021-27.842 39.699-44.941-25.287 38.848-68.917 68.982-128.138 78.743-91.19 15.002-183.625-44.481-197.12-105.143-14.347-64.396 33.345-117.132 83.067-115.363 48.019 1.638 81.953 33.083 119.033 23.91 16.049-3.995 35.899-21.945 58.762-30.986-7.861 2.491-15.394 6.028-22.667 10.024-8.451 4.716-16.771 9.826-25.942 13.561-4.586 1.835-9.433 3.341-14.478 3.93-5.044.59-9.958.327-14.871 0-9.891-.785-19.522-3.276-28.759-6.289-9.302-3.079-18.408-6.42-27.449-10.023-8.909-3.603-18.212-6.026-27.776-7.468-9.5-1.31-19.26-1.572-28.825.131 9.368-2.556 19.325-2.686 29.021-1.965 9.761 1.047 19.391 3.21 28.628 6.551 18.277 6.288 36.424 13.756 55.488 15.264 4.716.393 9.564.655 14.15.197 4.651-.458 9.171-1.834 13.626-3.537 8.844-3.472 17.098-8.516 25.877-12.84 8.647-4.39 17.753-8.385 27.383-10.416 8.451-1.769 17.098-2.031 25.549-.917 1.114.131 2.227.261 3.341.458h.066c13.692 2.49 28.038 9.171 38.848 20.047 1.703.065 3.439 3.333 7.73 3.276C314.884 2540.12 301.942 2607.376 290.084 2610.26zM294.199 2648.213c.387.607-2.42 3.493-7.11 3.392-4.62.002-8.579-2.253-8.546-2.932-.002-.696 3.697.306 7.978.295C290.832 2649.07 293.829 2647.522 294.199 2648.213zM287.28 2627.575c.488 1.93 1.898 3.238 3.152 2.921 1.251-.317 1.872-2.139 1.384-4.067-.485-1.931-1.898-3.238-3.15-2.921C287.414 2623.825 286.793 2625.646 287.28 2627.575z"></path>
      <path fill="#FFF" d="M286.29,2625.801c0.219,0.638,0.912,0.975,1.55,0.756c0.635-0.219,0.973-0.911,0.756-1.549
						c-0.219-0.636-0.912-0.973-1.548-0.756C286.41,2624.471,286.072,2625.165,286.29,2625.801z"></path>
      <path fill="#11405C" d="M284.68,2619.563c0.257-1.357,4.433-2.649,5.491-1.092c1.058,1.559,0.775,2.559-1.15,2.669
					C287.098,2621.251,284.474,2620.649,284.68,2619.563z"></path>
      <g>
        <path fill="#D7A28E" d="M266.852,2642.294c-11.38,7.17-20.119-19.189-9.744-23.645c2.996-1.285,8.928-1.801,10.434,4.177
					C269.163,2629.277,269.343,2640.722,266.852,2642.294z"></path>
        <path fill="#11405C" d="M258.901,2623.574c2.444,1.91,6.89,8.356,3.876,13.171c0,0,0.058-3.262-1.653-5.268l-4.337-2.044
					l4.358-0.261L258.901,2623.574z"></path>
      </g>
    </g>
    <g>
      <rect width="14.594" height="39.143" x="563.834" y="2726.901" fill="#91C4F6" transform="rotate(19.444 571.099 2746.044)"></rect>
      <path fill="#11405C" d="M570.067,2749.485c-7.654-2.702-16.049,1.313-18.75,8.967l-16.458,46.625
				c-2.702,7.654,1.313,16.049,8.967,18.75c7.654,2.701,16.049-1.312,18.75-8.967l16.458-46.625
				C581.736,2760.582,577.722,2752.187,570.067,2749.485z"></path>
      <path fill="#91C4F6" d="M612.178,2630.672c-28.54-10.074-59.8,4.874-69.852,33.351c-10.074,28.541,4.874,59.8,33.414,69.874
				c28.478,10.052,59.737-4.896,69.812-33.437C655.604,2671.984,640.656,2640.725,612.178,2630.672z M580.93,2719.195
				c-20.386-7.196-31.119-29.534-23.901-49.981c7.196-20.385,29.573-31.035,49.959-23.839c20.385,7.196,31.119,29.534,23.923,49.919
				C623.693,2715.74,601.316,2726.391,580.93,2719.195z"></path>
      <g>
        <path fill="#D7A28E" d="M578.159,2796.972c-0.146,0.007-0.233,0.041-0.345,0.134c-0.06-0.027-0.086,0.033-0.086,0.033
				c-8.031,1.965-16.853,3.938-21.197,3.88c-10.477-0.117-41.224,7.708-41.224,7.708s-5.325-34.299-6.016-37.111
				c4.163-0.667,18.884-3.184,18.884-3.184c9.975-7.983,14.151-17.595,27.303-29.689c5.418,1.678,3.713,7.156,3.713,7.156
				l-5.24,16.879l31.476-2.991c0.563,1.967,1.496,6.175-0.076,8.275c-4.501,0.947-8.743,1.793-9.76,1.988l9.403-0.857
				c0.463,1.708,1.577,6.642-0.24,9.133c-4.055,1.072-7.3,1.93-8.283,2.212l7.587-0.801c0.197,1.663,0.607,7.215-1.87,9.416
				c-2.925,0.784-5.185,1.361-5.91,1.542l5.532-0.849C581.959,2791.13,582.102,2795.992,578.159,2796.972z"></path>
        <path fill="#C18C7C" d="M571.205 2770.306c.058.496 3.023.562 6.624.145 3.602-.415 6.474-1.154 6.417-1.649-.056-.496-3.022-.56-6.624-.146C574.021 2769.071 571.148 2769.809 571.205 2770.306zM571.452 2781.071c.079.493 2.868.453 6.227-.09 3.362-.542 6.02-1.384 5.94-1.876-.079-.493-2.867-.451-6.228.092C574.031 2779.74 571.372 2780.578 571.452 2781.071zM570.841 2791.152c.065.494 2.394.594 5.198.226 2.806-.372 5.028-1.074 4.961-1.569-.064-.494-2.392-.595-5.198-.224C572.996 2789.955 570.776 2790.655 570.841 2791.152z"></path>
        <path fill="#C18C7C" d="M570.75 2786.987c-.468.261-.023 1.695-.042 3.315.028 1.628-.43 2.974-.039 3.272.375.354 1.854-1.005 1.846-3.275C572.495 2788.033 571.118 2786.725 570.75 2786.987zM571.243 2777.504c-.47.261-.025 1.695-.044 3.315.027 1.628-.43 2.972-.038 3.273.374.352 1.854-1.006 1.846-3.276C572.986 2778.551 571.609 2777.241 571.243 2777.504zM571.093 2767.338c-.47.26-.024 1.696-.042 3.315.026 1.629-.431 2.976-.039 3.272.375.354 1.854-1.006 1.845-3.274C572.837 2768.386 571.46 2767.078 571.093 2767.338z"></path>
      </g>
    </g>
    <path fill="#FFC439" d="M255.236,2702.75l24.574,8.25l76.981,103.229l171.785-48.947l6.448,43.121
		c0,0-169.542,96.878-178.233,93.037c-8.691-3.842-105.168-72.326-116.623-83.87C220.923,2798.178,237.267,2734.997,255.236,2702.75
		z"></path>
    <path fill="#DBA12C" d="M233.266 2773.522c0 0-9.8 29.143 15.779 50.139l96.286 70.635-98.3-59.791C247.031 2834.506 215.875 2807.172 233.266 2773.522zM356.734 2817.216c0 0 8.468 22.406 3.042 31.381C354.351 2857.573 356.734 2817.216 356.734 2817.216zM144.878 2764.888l-38.873 143.81C106.005 2908.698 111.668 2817.376 144.878 2764.888z"></path>
  </g>
  <g>
    <polygon fill="#FFC439" points="630.487 3311.678 759.986 3284.165 889.485 3303.166 762.266 3347.036"></polygon>
    <polygon fill="#DBA12C" points="765.787 3478.896 891.823 3448.119 889.485 3303.166 761.821 3330.331"></polygon>
    <polygon fill="#CDEEFF" points="688.433 3299.367 728.951 3290.999 843.716 3312.154 845.11 3341.279 829.161 3346.208 826.203 3341.46 824.655 3348.191 812.478 3352.401 812.072 3321.209" opacity=".5"></polygon>
    <polygon fill="#CDEEFF" points="826.317 3464.167 826.244 3441.554 834.063 3440.036 835.784 3442.798 836.685 3438.932 857.136 3433.129 859.535 3456.036" opacity=".5"></polygon>
    <polygon fill="#FFC439" points="630.487 3311.678 634.65 3460.575 765.787 3478.896 761.821 3330.331"></polygon>
    <path fill="#DBA12C" d="M630.487,3311.678l131.333,18.653c0,0-40.975,4.821-68.187,0
				C666.422,3325.51,630.487,3311.678,630.487,3311.678z"></path>
    <g>
      <polygon fill="#FFC439" points="812.072 3346.588 914.535 3324.82 1016.998 3339.854 916.339 3374.565"></polygon>
      <polygon fill="#DBA12C" points="919.124 3478.896 1018.848 3454.545 1016.998 3339.854 915.986 3361.347"></polygon>
      <polygon fill="#CDEEFF" points="857.92 3336.847 889.979 3330.227 980.785 3346.965 981.888 3370.01 969.268 3373.91 966.928 3370.153 965.703 3375.479 956.068 3378.81 955.746 3354.129" opacity=".5"></polygon>
      <polygon fill="#CDEEFF" points="967.018 3467.242 966.96 3449.35 973.146 3448.149 974.509 3450.334 975.221 3447.275 991.402 3442.684 993.301 3460.809" opacity=".5"></polygon>
      <polygon fill="#FFC439" points="812.072 3346.588 815.365 3464.399 919.124 3478.896 915.986 3361.347"></polygon>
      <path fill="#DBA12C" d="M812.072,3346.588l103.915,14.759c0,0-32.42,3.815-53.952,0
				C840.504,3357.532,812.072,3346.588,812.072,3346.588z"></path>
    </g>
    <g>
      <path fill="#2F627C" d="M1081.05,3266.967v-12.561h-58.043l16.737-98.029h-21.108l-13.946,98.029h-94.069l6.51-98.029h-21.243
			l-3.718,98.029h-94.002l-3.718-98.029h-21.241l6.509,98.029h-94.069l-13.946-98.029h-21.109l16.737,98.029H609.29v12.561h60.185
			l14.228,83.334h-67.632v12.561h69.776l15.869,92.945h12.583l-13.222-92.945h85.842l6.172,92.945h12.716l-3.525-92.945h85.775
			l-3.525,92.945h12.716l6.172-92.945h85.843l-13.223,92.945h12.582l15.869-92.945h69.779v-12.561h-67.634l14.228-83.334H1081.05z
			 M699.29,3350.301l-11.855-83.334h93.116l5.534,83.334H699.29z M801.804,3350.301l-3.16-83.334h93.049l-3.161,83.334H801.804z
			 M991.048,3350.301h-86.795l5.534-83.334h93.116L991.048,3350.301z"></path>
      <path fill="#11405C" d="M572.098,3169.465l51.976,282.041c2.175,11.804,12.467,20.373,24.469,20.373h393.252
			c12.002,0,22.294-8.569,24.469-20.373l51.975-282.041c2.818-15.291-8.922-29.391-24.469-29.391H596.568
			C581.021,3140.074,569.281,3154.174,572.098,3169.465z M625.947,3164.533h438.442c15.547,0,27.286,14.1,24.47,29.39
			l-42.958,233.126c-2.175,11.804-12.467,20.372-24.469,20.372H668.904c-12.002,0-22.294-8.569-24.469-20.372l-42.957-233.126
			C598.661,3178.633,610.401,3164.533,625.947,3164.533z"></path>
      <path fill="#2F627C" d="M1060.58,3470.401c0,0-291.048,0.032-389.266,0.045c-18.619,0.003-34.685-13.029-38.537-31.246
			l-73.768-348.777l-0.587-2.496c-3.063-13.007-14.641-22.219-28.003-22.279l-100.488-0.449l-1.223,24.642l98.586,0.488
			c3.754,0.019,7.006,2.609,7.865,6.264l86.008,376.629c-27.982,8.402-48.179,34.797-47.083,65.761
			c1.27,35.884,31.917,63.776,67.825,63.776h271.581c0.012,0,0.024-0.004,0.036-0.004h25.996c7.908,0,14.27-6.617,13.851-14.617
			c-0.379-7.251-7.375-13.125-14.635-13.125h-25.109c-0.047-0.001-0.092-0.014-0.14-0.014H641.502
			c-21.159,0-39.309-16.554-39.697-37.709c-0.394-21.553,16.959-39.147,38.422-39.147h419.568c7.261,0,14.256-5.875,14.636-13.127
			C1074.848,3477.018,1068.486,3470.401,1060.58,3470.401z"></path>
      <path fill="#11405C" d="M913.749,3613.771c-7.995-10.871-20.879-17.889-35.43-17.889s-27.436,7.018-35.431,17.889
				c-5.407,7.305-8.57,16.334-8.57,26.113c0,24.33,19.671,44,44.001,44c24.33,0,44.058-19.671,44.058-44
				C922.377,3630.105,919.156,3621.076,913.749,3613.771z M878.319,3666.053c-14.437,0-26.113-11.733-26.113-26.169
				c0-14.38,11.676-26.113,26.113-26.113c14.436,0,26.171,11.733,26.171,26.113C904.489,3654.32,892.755,3666.053,878.319,3666.053z
				"></path>
      <path fill="#FFF" d="M904.489,3639.884c0,14.436-11.734,26.169-26.171,26.169c-14.437,0-26.113-11.733-26.113-26.169
				c0-14.38,11.676-26.113,26.113-26.113C892.755,3613.771,904.489,3625.504,904.489,3639.884z"></path>
      <path fill="#11405C" d="M888.181,3639.881c0,5.45-4.412,9.882-9.864,9.882c-5.433,0-9.83-4.431-9.83-9.882
				c0-5.416,4.396-9.848,9.83-9.848C883.768,3630.032,888.181,3634.464,888.181,3639.881z"></path>
      <g>
        <path fill="#11405C" d="M752.527,3613.771c-7.994-10.871-20.878-17.889-35.43-17.889c-14.552,0-27.436,7.018-35.43,17.889
				c-5.407,7.305-8.571,16.334-8.571,26.113c0,24.33,19.671,44,44.001,44c24.33,0,44.058-19.671,44.058-44
				C761.155,3630.105,757.934,3621.076,752.527,3613.771z M717.097,3666.053c-14.437,0-26.113-11.733-26.113-26.169
				c0-14.38,11.676-26.113,26.113-26.113s26.113,11.733,26.113,26.113C743.21,3654.32,731.534,3666.053,717.097,3666.053z"></path>
        <path fill="#FFF" d="M743.21,3639.884c0,14.436-11.676,26.169-26.113,26.169s-26.113-11.733-26.113-26.169
				c0-14.38,11.676-26.113,26.113-26.113S743.21,3625.504,743.21,3639.884z"></path>
        <path fill="#11405C" d="M726.952,3639.881c0,5.45-4.413,9.882-9.864,9.882c-5.434,0-9.83-4.431-9.83-9.882
				c0-5.416,4.396-9.848,9.83-9.848C722.538,3630.032,726.952,3634.464,726.952,3639.881z"></path>
      </g>
      <path fill="#11405C" d="M385.768,3087.95c-0.197,4.721,3.536,8.532,8.156,8.403l101.288-2.841l14.209-0.452
			c3.144-0.101,5.481-3.861,4.884-7.805l-2.538-16.773c-0.459-3.031-2.514-5.278-4.929-5.36l0,0l-111.946-4.616
			c-4.375-0.18-8.037,3.214-8.223,7.685L385.768,3087.95z"></path>
    </g>
  </g>
  <g>
    <circle cx="-474.095" cy="1974.054" r="75" fill="#F2CD33"></circle>
    <path fill="#DBA12C" d="M-476.822,2002.487c-5.373-0.531-11.27-2.997-15.234-6.693l4.58-6.867
				c4.137,3.258,8.273,5.459,13.029,5.459c5.721,0,8.539-2.818,8.539-7.57c0-11.624-23.948-9.95-23.948-26.503
				c0-8.187,5.108-13.997,13.033-15.406v-8.983h7.043v8.807c5.635,0.702,9.506,3.434,12.764,6.864l-5.194,5.9
				c-3.258-2.993-5.986-4.667-10.212-4.667c-4.757,0-7.66,2.466-7.66,7.044c0,10.567,23.947,8.452,23.947,26.237
				c0,8.362-4.932,14.527-13.646,16.112v9.069h-7.043V2002.487z"></path>
    <path fill="#F2CD33" d="M1509.363,3281.557c6.681,38.591-19.188,75.293-57.779,81.973c-38.592,6.681-75.293-19.187-81.974-57.779
			c-6.681-38.591,19.187-75.293,57.779-81.973C1465.981,3217.096,1502.681,3242.965,1509.363,3281.557z"></path>
    <path fill="#DBA12C" d="M1441.531,3320.585c-5.092,0.372-10.983-0.974-15.273-3.778l3.16-7.137
				c4.379,2.368,8.588,3.752,13.02,2.985c5.33-0.923,7.5-4.002,6.734-8.43c-1.875-10.83-23.916-5.408-26.587-20.83
				c-1.321-7.628,2.501-13.865,9.657-16.456l-1.448-8.369l6.562-1.137l1.42,8.206c5.363-0.255,9.411,1.666,12.999,4.336
				l-3.887,6.335c-3.518-2.263-6.33-3.383-10.267-2.701c-4.432,0.767-6.739,3.533-6.001,7.798
				c1.705,9.845,23.675,4.012,26.544,20.583c1.349,7.791-2.252,14.331-10.115,17.212l1.463,8.449l-6.562,1.136L1441.531,3320.585z"></path>
    <g>
      <path fill="#FFC439" d="M-501.14,2968.227l-108.292,47.97l5.674,52.343l91.499,206.666l14.687-6.441l108.248-47.966l14.644-6.497
				l-91.554-206.622L-501.14,2968.227z M-540.116,3026.582c-6.35,2.816-13.768-0.111-16.604-6.428
				c-2.808-6.399,0.015-13.873,6.433-16.712c6.321-2.795,13.852,0.044,16.704,6.439
				C-530.816,3016.283-533.698,3023.742-540.116,3026.582z"></path>
      <path fill="#DBA12C" d="M-522.3,3086.535l-3.768-8.483l14.701-6.481l3.824,8.44c13.925-2.973,24.825,3.921,31.66,19.477
					l1.619,3.56l-17.056,7.577l-2.13-4.728c-3.606-8.218-8.275-9.894-13.96-7.329c-5.728,2.509-7.619,7.076-4.028,15.276
					c10.436,23.535,46.189,9.085,60.668,41.915c6.833,15.496,4.55,28.495-7.049,36.736l3.724,8.367l-14.744,6.545l-3.737-8.386
					c-14.094,3.104-25.012-3.987-31.89-19.538l-3.426-7.877l16.957-7.47l3.965,8.964c3.661,8.174,8.566,9.573,14.252,7.008
					c5.756-2.532,8.075-7.072,4.442-15.269c-10.437-23.595-46.174-9.126-60.623-41.86
					C-535.746,3107.582-533.696,3094.918-522.3,3086.535z"></path>
    </g>
    <g>
      <path fill="#F2CD33" d="M1181.738,2715.978l-53.135,166.854c0,0,101.041,66.901,105.415,63.427
			c4.374-3.475,91.06-156.99,91.06-156.99L1181.738,2715.978z"></path>
      <path fill="#DBA12C" d="M1227.893,2797.739c7.088,4.119,9.199,11.134,2.937,18.474c-6.186,7.383-14.744,8.199-21.832,4.079
				c-7.162-4.162-9.273-11.177-3.086-18.56C1212.173,2794.393,1220.805,2793.621,1227.893,2797.739z M1251.259,2812.316l12.31,7.153
				l-68.571,30.412l-12.31-7.154L1251.259,2812.316z M1214.791,2806.892c-2.592,3.085-2.458,5.259-0.219,6.559
				c2.238,1.301,4.865,0.732,7.455-2.354c2.592-3.085,2.383-5.302,0.144-6.603
				C1219.933,2803.194,1217.382,2803.807,1214.791,2806.892z M1237.408,2841.991c7.087,4.119,9.124,11.091,2.862,18.43
				c-6.186,7.383-14.744,8.199-21.832,4.079c-7.087-4.118-9.198-11.133-2.938-18.473
				C1221.688,2838.645,1230.32,2837.873,1237.408,2841.991z M1224.23,2851.1c-2.592,3.085-2.457,5.259-0.144,6.603
				c2.164,1.258,4.79,0.689,7.381-2.397c2.591-3.085,2.382-5.302,0.219-6.559C1229.447,2847.446,1226.822,2848.015,1224.23,2851.1z"></path>
    </g>
  </g>
</svg>
